<svg width="127" height="52" viewBox="0 0 127 52" fill="none" xmlns="http://www.w3.org/2000/svg">
<path d="M14.2388 41.6094C14.2388 41.015 14.6066 40.6378 15.1697 40.6378C15.7328 40.6378 16.089 41.0036 16.089 41.6094V42.6382C16.5832 41.6323 17.675 40.6378 18.6633 40.6378C19.2954 40.6378 19.6056 41.0036 19.6056 41.4951C19.6056 41.9866 19.3298 42.341 18.5254 42.5582C16.836 43.0269 16.089 43.9642 16.089 45.7818V51.0058C16.089 51.6116 15.7328 51.9888 15.1697 51.9888C14.6066 51.9888 14.2388 51.6116 14.2388 51.0058V41.6094Z" fill="#414141"/>
<path d="M55.829 41.6094C55.829 41.015 56.1967 40.6378 56.7598 40.6378C57.323 40.6378 57.6907 41.0036 57.6907 41.6094V42.6382C58.1849 41.6323 59.2766 40.6378 60.2535 40.6378C60.897 40.6378 61.2073 41.0036 61.2073 41.4951C61.2073 41.9866 60.9315 42.341 60.1156 42.5582C58.4262 43.0269 57.6907 43.9642 57.6907 45.7818V51.0058C57.6907 51.6116 57.323 51.9888 56.7598 51.9888C56.1967 51.9888 55.829 51.6116 55.829 51.0058V41.6094Z" fill="#414141"/>
<path d="M24.892 40.6378C26.6963 40.6378 27.8685 41.3579 27.8685 42.0095C27.8685 42.4096 27.5697 42.7983 27.133 42.7983C26.4665 42.7983 26.1332 42.2496 24.892 42.2496C22.7775 42.2496 21.7087 44.1243 21.7087 46.319C21.7087 48.6853 22.9269 50.3771 24.892 50.3771C26.2711 50.3771 26.5699 49.8169 27.2135 49.8169C27.6272 49.8169 27.8915 50.1027 27.8915 50.5371C27.8915 50.9715 27.5467 51.2916 26.9147 51.5773C26.363 51.8288 25.6505 52.0003 24.892 52.0003C21.7432 52.0003 19.8355 49.6455 19.8355 46.3305C19.8355 43.0154 21.7432 40.6606 24.892 40.6606" fill="#414141"/>
<path d="M36.66 45.6332C36.66 44.0442 35.7636 42.2381 33.718 42.2381C31.6724 42.2381 30.6496 43.8042 30.5807 45.6332H36.66ZM30.5807 47.0163C30.6151 48.8339 31.7988 50.3771 33.8674 50.3771C35.936 50.3771 36.5681 49.1539 37.3496 49.1539C37.7978 49.1539 38.0966 49.4626 38.0966 49.9198C38.0966 50.8114 36.1084 51.9774 33.8789 51.9774C32.2126 51.9774 31.0978 51.4516 30.2589 50.6057C29.2016 49.5426 28.7074 47.9651 28.7074 46.3076C28.7074 43.2784 30.5922 40.6378 33.718 40.6378C36.6141 40.6378 38.5103 43.1869 38.5103 46.0333C38.5103 46.6848 38.2459 47.0163 37.476 47.0163H30.5692H30.5807Z" fill="#414141"/>
<path d="M42.3142 51.0058C42.3142 51.6116 41.9579 51.9888 41.3833 51.9888C40.8087 51.9888 40.4639 51.6116 40.4639 51.0058V37.8715C40.4639 37.2542 40.8317 36.8884 41.3833 36.8884C41.9349 36.8884 42.3142 37.2656 42.3142 37.8715V51.0058Z" fill="#414141"/>
<path d="M49.0716 50.3771C50.8873 50.3771 52.117 48.7996 52.117 46.319C52.117 43.8385 50.8873 42.2496 49.0716 42.2496C47.2558 42.2496 46.0261 43.8156 46.0261 46.319C46.0261 48.8224 47.2673 50.3771 49.0716 50.3771ZM49.0716 51.9888C46.1181 51.9888 44.1644 49.6455 44.1644 46.319C44.1644 42.9926 46.1296 40.6378 49.0716 40.6378C52.0136 40.6378 53.9787 42.9812 53.9787 46.319C53.9787 49.6569 52.0136 51.9888 49.0716 51.9888Z" fill="#414141"/>
<path d="M74.0785 41.4037C73.0443 44.9359 71.3434 50.7543 71.2055 51.223C71.0561 51.7488 70.7228 51.9774 70.2287 51.9774C69.7345 51.9774 69.4127 51.7831 69.2403 51.223C69.1024 50.72 67.3211 44.6387 66.2983 41.1293C66.126 40.5578 65.9766 39.8719 65.8502 39.3003C65.7812 39.8605 65.6893 40.5235 65.5858 41.1408C65.0572 44.4443 64.2412 49.5997 63.9999 51.0629C63.8965 51.6916 63.5747 51.9774 63.0346 51.9774C62.5289 51.9774 62.2071 51.6345 62.2071 51.0972C62.2071 50.8915 62.2531 50.6171 62.3106 50.2628C62.3106 50.2628 64.1838 39.1174 64.3217 38.2715C64.4826 37.3571 64.9538 36.877 65.7237 36.877C66.4133 36.877 66.9649 37.277 67.1717 38.0315C67.3097 38.5002 68.8151 43.7242 69.7575 47.0392C69.9299 47.6565 70.1137 48.3652 70.2402 49.0168C70.3666 48.3881 70.5275 47.6908 70.7113 47.0963C71.6537 43.7928 73.1822 38.5002 73.3316 38.0315C73.5499 37.277 74.0326 36.877 74.7221 36.877C75.4461 36.877 75.9747 37.3456 76.1241 38.2715C76.2621 39.1174 78.1353 50.2628 78.1353 50.2628C78.1927 50.6171 78.2387 50.8915 78.2387 51.0972C78.2387 51.6345 77.9169 51.9774 77.4113 51.9774C76.8711 51.9774 76.5379 51.6916 76.4344 51.0629C76.2161 49.6455 75.4346 44.7301 74.906 41.438C74.7911 40.7521 74.6991 39.9862 74.6187 39.2889C74.4923 39.9062 74.3084 40.6606 74.09 41.4037" fill="#414141"/>
<path d="M82.4334 41.6094C82.4334 41.0036 82.0656 40.6378 81.5025 40.6378C80.9394 40.6378 80.5831 41.0036 80.5831 41.6094V50.9943C80.5831 51.6002 80.9394 51.9774 81.5025 51.9774C82.0656 51.9774 82.4334 51.6002 82.4334 50.9943V41.6094ZM81.491 37.3799C82.1231 37.3799 82.6287 37.8829 82.6287 38.5002C82.6287 39.1174 82.1231 39.6433 81.491 39.6433C80.8589 39.6433 80.3533 39.1289 80.3533 38.5002C80.3533 37.8715 80.8589 37.3799 81.491 37.3799Z" fill="#414141"/>
<path d="M85.6512 38.3744C85.6512 37.7571 86.0074 37.3914 86.5705 37.3914C87.1337 37.3914 87.5014 37.7686 87.5014 38.3744V40.7635H88.2599C88.869 40.7635 89.1793 41.0607 89.1793 41.5523C89.1793 42.0438 88.869 42.3639 88.2599 42.3639H87.5014V51.0058C87.5014 51.6116 87.1337 51.9888 86.5705 51.9888C86.0074 51.9888 85.6512 51.6116 85.6512 51.0058V42.3639H84.9731C84.364 42.3639 84.0537 42.0552 84.0537 41.5523C84.0537 41.0493 84.364 40.7635 84.9731 40.7635H85.6512V38.3744Z" fill="#414141"/>
<path d="M91.5007 38.3744C91.5007 37.7571 91.8569 37.3914 92.4315 37.3914C93.0061 37.3914 93.3509 37.7686 93.3509 38.3744V40.7635H94.1094C94.7185 40.7635 95.0288 41.0607 95.0288 41.5523C95.0288 42.0438 94.707 42.3639 94.1094 42.3639H93.3509V51.0058C93.3509 51.6116 92.9947 51.9888 92.4315 51.9888C91.8684 51.9888 91.5007 51.6116 91.5007 51.0058V42.3639H90.8226C90.2136 42.3639 89.8918 42.0552 89.8918 41.5523C89.8918 41.0493 90.2021 40.7635 90.8226 40.7635H91.5007V38.3744Z" fill="#414141"/>
<path d="M3.65451 46.1476C4.43598 43.9985 5.27491 41.6551 5.82653 40.0891C5.97593 39.6547 6.12533 39.2432 6.22876 38.8888C6.34368 39.2661 6.48159 39.689 6.63098 40.0891C7.1941 41.6666 8.03303 43.9985 8.803 46.1476H3.65451ZM12.2507 50.2856C11.8714 49.2683 8.23989 39.5633 7.66528 38.0772C7.38947 37.3228 6.95276 36.8884 6.24025 36.8884C5.52773 36.8884 5.11402 37.3342 4.82671 38.0772C4.57388 38.7402 0.620577 49.2683 0.241336 50.2856C0.068953 50.7429 0 50.9829 0 51.1887C0 51.6459 0.390734 51.9774 0.873405 51.9774C1.35608 51.9774 1.66637 51.7145 1.81576 51.2801C1.9077 51.0286 2.42485 49.5998 3.0799 47.7708H9.3891C9.99819 49.4969 10.5038 50.88 10.6532 51.2801C10.7912 51.6688 11.0555 51.9774 11.5496 51.9774C12.0438 51.9774 12.4805 51.6802 12.4805 51.2001C12.4805 50.9943 12.4345 50.8229 12.2277 50.2742" fill="#414141"/>
<path d="M110.187 51.0058C110.187 51.6116 109.819 51.9888 109.256 51.9888C108.693 51.9888 108.325 51.6116 108.325 51.0058V37.8715C108.325 37.2542 108.681 36.8884 109.256 36.8884C109.831 36.8884 110.187 37.2656 110.187 37.8715V51.0058Z" fill="#414141"/>
<path d="M100.821 50.3771C99.0166 50.3771 97.7754 48.7996 97.7754 46.319C97.7754 43.8385 99.0166 42.2496 100.821 42.2496C102.625 42.2496 103.866 43.8156 103.866 46.319C103.866 48.8224 102.625 50.3771 100.821 50.3771ZM104.786 40.6378C104.211 40.6378 103.855 41.015 103.855 41.6094V42.4439C103.165 41.3351 102.062 40.6264 100.683 40.6264C97.8559 40.6264 95.9137 42.9697 95.9137 46.3076C95.9137 49.6455 97.8559 51.9774 100.683 51.9774C102.062 51.9774 103.177 51.2801 103.855 50.1599V50.9943C103.855 51.5888 104.211 51.9774 104.786 51.9774C105.36 51.9774 105.716 51.6002 105.716 50.9943V41.6094C105.716 41.015 105.349 40.6378 104.786 40.6378Z" fill="#414141"/>
<path d="M124.449 21.6162C123.725 21.6162 122.978 21.3533 122.564 21.1361C114.003 16.7008 104.292 14.0717 94.8569 14.0717C93.6732 14.0717 92.7998 14.1174 91.6965 14.2317C93.4778 17.0437 96.5462 21.1361 98.6493 23.6509C99.2009 24.3025 99.3618 24.6797 99.3618 25.3198C99.3618 26.4058 98.2011 27.4689 96.9714 27.4689C96.1555 27.4689 95.6613 27.1603 94.8913 26.2572C92.3401 23.2737 88.5017 17.9811 86.6744 14.9862C77.722 16.5522 67.7468 21.8105 61.8513 26.463C61.1848 27.0002 60.7136 27.2174 60.0356 27.2174C58.7714 27.2174 57.6797 26.1429 57.6797 24.9198C57.6797 24.211 57.9555 23.6738 58.8749 22.9193C67.8732 15.4663 81.8477 9.57925 93.7192 9.57925C98.4309 9.57925 102.97 10.2308 107.36 11.2939C110.027 11.9455 113.98 13.2601 117.347 14.7118C108.521 9.40778 97.4541 4.561 90.4669 4.561C88.6856 4.561 87.5823 5.16685 87.5823 6.34425C87.5823 7.05298 87.9846 8.00176 88.5707 8.95054C87.1686 9.08771 85.3184 9.37349 83.9278 9.73928C83.2038 8.41328 82.6867 6.99582 82.6867 5.47549C82.6867 2.08046 84.9161 0 89.3866 0C99.5342 0 116.566 9.40778 125.07 16.2664C126.047 17.0552 127 18.0268 127 19.1699C127 20.313 126.012 21.6047 124.449 21.6047" fill="#FF3700"/>
</svg>
